<svg width="46" height="46" viewBox="0 0 46 46" fill="none" xmlns="http://www.w3.org/2000/svg">
<g clip-path="url(#clip0_1_56)">
<circle cx="23" cy="23" r="23" fill="url(#paint0_linear_1_56)"/>
<path d="M18.5 24.5L17.7929 23.7929L18.5 23.0858L19.2071 23.7929L18.5 24.5ZM19.5 38C19.5 38.5523 19.0523 39 18.5 39C17.9477 39 17.5 38.5523 17.5 38L18.5 38L19.5 38ZM11 32L10.2929 31.2929L17.7929 23.7929L18.5 24.5L19.2071 25.2071L11.7071 32.7071L11 32ZM18.5 24.5L19.2071 23.7929L26.7071 31.2929L26 32L25.2929 32.7071L17.7929 25.2071L18.5 24.5ZM18.5 24.5L19.5 24.5L19.5 38L18.5 38L17.5 38L17.5 24.5L18.5 24.5Z" fill="white"/>
<path d="M27.5 21.5L26.7929 22.2071L27.5 22.9142L28.2071 22.2071L27.5 21.5ZM28.5 8C28.5 7.44772 28.0523 7 27.5 7C26.9477 7 26.5 7.44772 26.5 8L27.5 8L28.5 8ZM20 14L19.2929 14.7071L26.7929 22.2071L27.5 21.5L28.2071 20.7929L20.7071 13.2929L20 14ZM27.5 21.5L28.2071 22.2071L35.7071 14.7071L35 14L34.2929 13.2929L26.7929 20.7929L27.5 21.5ZM27.5 21.5L28.5 21.5L28.5 8L27.5 8L26.5 8L26.5 21.5L27.5 21.5Z" fill="white"/>
</g>
<defs>
<linearGradient id="paint0_linear_1_56" x1="23" y1="0" x2="23" y2="46" gradientUnits="userSpaceOnUse">
<stop stop-color="#7743D4"/>
<stop offset="1" stop-color="#4A2986"/>
</linearGradient>
<clipPath id="clip0_1_56">
<rect width="46" height="46" fill="white"/>
</clipPath>
</defs>
</svg>
