<svg width="55" height="55" viewBox="0 0 55 55" fill="none" xmlns="http://www.w3.org/2000/svg">
<g clip-path="url(#clip0_1_28)">
<path d="M28.2495 32.0294H24.4788C24.2593 32.0304 24.0497 31.9488 23.902 31.805C23.7544 31.6611 23.6826 31.4685 23.7046 31.2751L24.0375 27.9152C24.0699 27.558 24.4072 27.2832 24.8118 27.2843H28.5824C28.8019 27.2833 29.0115 27.3649 29.1592 27.5088C29.3068 27.6526 29.3786 27.8452 29.3567 28.0386L29.0237 31.3986C28.9914 31.7557 28.654 32.0306 28.2495 32.0294ZM28.8538 25.451H25.0131C24.5888 25.451 24.2449 25.1237 24.2449 24.7201L25.2896 13.3687C25.3365 12.9996 25.667 12.7228 26.0577 12.7255H29.8985C30.3228 12.7255 30.6667 13.0528 30.6667 13.4564L29.5912 24.8151C29.5425 25.1704 29.2302 25.4397 28.8538 25.451ZM51.4371 12.2138C51.8458 12.6828 52.0455 13.2934 51.9913 13.9084L50.49 30.7722C50.4419 31.3238 50.1928 31.8399 49.7886 32.2257L37.5123 43.9366C37.0741 44.3532 36.4878 44.5854 35.8779 44.5842H22.809L11.3044 55L12.1953 44.5773H6.34484C5.68775 44.5778 5.06064 44.3073 4.61645 43.8318C4.17225 43.3563 3.9518 42.7195 4.00886 42.0767L7.57948 2.06664C7.702 0.890802 8.71184 -0.00259526 9.91546 5.66439e-06H39.708C40.3934 -0.000188724 41.0445 0.294337 41.4898 0.805993L51.4371 12.2138ZM42.3387 27.5551L43.2927 17.1462C43.3297 16.529 43.1123 15.9233 42.6894 15.4653L37.0774 9.10008C36.6327 8.59719 35.9879 8.30823 35.3097 8.30787H17.6319C16.4283 8.30527 15.4185 9.19867 15.2959 10.3745L13.1915 33.7963C13.143 34.4372 13.3664 35.0692 13.8088 35.5427C14.2511 36.0163 14.8731 36.2892 15.5274 36.297H32.9105C33.5136 36.2984 34.094 36.0714 34.531 35.6632L41.6372 29.0155C42.043 28.6279 42.2922 28.1092 42.3387 27.5551Z" fill="#7743D4"/>
</g>
<defs>
<clipPath id="clip0_1_28">
<rect width="48" height="55" fill="white" transform="translate(4)"/>
</clipPath>
</defs>
</svg>
