<svg width="55" height="55" viewBox="0 0 55 55" fill="none" xmlns="http://www.w3.org/2000/svg">
<g clip-path="url(#clip0_1_36)">
<g clip-path="url(#clip1_1_36)">
<path d="M54.9732 27.4813C54.9732 31.339 54.8956 35.2079 54.9953 39.0657C55.1616 45.8943 50.8715 51.1711 45.4063 53.5212C43.2114 54.4635 40.9056 54.9623 38.5222 54.9623C31.0617 54.9734 23.59 55.0732 16.1294 54.9291C10.5091 54.8182 5.88642 52.4681 2.57184 47.8343C0.831415 45.3955 0 42.6241 0 39.6199C0 31.6716 0 23.7344 0 15.786C0 9.301 3.15938 4.76701 8.76866 1.81826C11.2075 0.543426 13.8569 0.000235022 16.6172 -0.0108505C23.8561 -0.0108505 31.106 -0.0551927 38.3449 0.0113205C43.9652 0.0556627 48.6544 2.20626 52.1131 6.72915C54.042 9.25666 54.9732 12.1611 54.9732 15.3537C54.9732 19.3888 54.9732 23.4351 54.9732 27.4813ZM4.09056 27.4813C4.09056 31.5497 4.09056 35.607 4.09056 39.6754C4.09056 41.4934 4.51181 43.2006 5.45408 44.7414C7.92615 48.7877 11.662 50.7609 16.2957 50.8385C23.7341 50.9493 31.1836 50.8828 38.6331 50.8607C40.4622 50.8607 42.2359 50.4838 43.8876 49.6967C48.3883 47.5461 50.9048 44.1207 50.8826 38.977C50.8382 31.1062 50.8715 23.2355 50.8715 15.3648C50.8715 13.1366 50.2396 11.0969 48.9205 9.301C46.3708 5.8534 42.8456 4.15731 38.6331 4.11297C31.2058 4.02428 23.7785 4.07971 16.3512 4.0908C14.7659 4.0908 13.2361 4.41228 11.7507 4.96655C7.67119 6.48527 3.87994 10.332 4.0573 15.9967C4.19033 19.8323 4.09056 23.6568 4.09056 27.4813Z" fill="#7743D4"/>
<path d="M27.5476 39.232C20.3974 39.232 14.6329 33.534 14.6218 26.4393C14.6108 19.4554 20.4196 13.7352 27.5254 13.7352C34.6534 13.7242 40.44 19.4332 40.4511 26.4725C40.4511 33.5007 34.6756 39.2209 27.5476 39.232ZM27.5476 35.1303C32.4141 35.1303 36.3606 31.2393 36.3495 26.4504C36.3384 21.7057 32.392 17.8258 27.5476 17.8258C22.681 17.8258 18.7124 21.6947 18.7124 26.4725C18.7235 31.2615 22.681 35.1414 27.5476 35.1303Z" fill="#7743D4"/>
<path d="M41.9476 9.85529C43.4442 9.85529 44.6636 11.1301 44.6636 12.6932C44.6525 14.2562 43.422 15.52 41.9254 15.5089C40.4511 15.4978 39.2428 14.2341 39.2428 12.7043C39.2317 11.1412 40.4511 9.85529 41.9476 9.85529Z" fill="#7743D4"/>
</g>
</g>
<defs>
<clipPath id="clip0_1_36">
<rect width="55" height="55" fill="white"/>
</clipPath>
<clipPath id="clip1_1_36">
<rect width="55" height="55" fill="white"/>
</clipPath>
</defs>
</svg>
