<svg width="55" height="55" viewBox="0 0 55 55" fill="none" xmlns="http://www.w3.org/2000/svg">
<g clip-path="url(#clip0_1_22)">
<path d="M44 7.33331H11C4.93535 7.33331 0 12.2686 0 18.3333V36.6666C0 42.7312 4.93535 47.6666 11 47.6666H44C50.0646 47.6666 55 42.7312 55 36.6666V18.3333C55 12.2686 50.0646 7.33331 44 7.33331ZM52.5556 36.6666C52.5556 41.3844 48.7178 45.2221 44 45.2221H11C6.28222 45.2221 2.44444 41.3844 2.44444 36.6666V18.3333C2.44444 13.6155 6.28222 9.77776 11 9.77776H44C48.7178 9.77776 52.5556 13.6155 52.5556 18.3333V36.6666ZM20.5 37.8411L38.4117 27.5011L20.5 17.1587V37.8411ZM22.9444 21.3926L33.5228 27.5012L22.9444 33.6074V21.3926Z" fill="#7743D4"/>
</g>
<defs>
<clipPath id="clip0_1_22">
<rect width="55" height="55" fill="white"/>
</clipPath>
</defs>
</svg>
